<?xml version="1.0" encoding="UTF-8"?>
<svg id="Camada_1" xmlns="http://www.w3.org/2000/svg" version="1.1" viewBox="0 0 1130.04 545">
  <!-- Generator: Adobe Illustrator 30.3.0, SVG Export Plug-In . SVG Version: 2.1.3 Build 182)  -->
  <defs>
    <style>
      .st0 {
        fill: #666;
        font-family: NeueHaasDisplay-Roman, 'Neue Haas Grotesk Display Pro';
        font-size: 117.6px;
      }
    </style>
  </defs>
  <g>
    <path d="M763.35,77.4c-18.9-15.16-47.67-11.77-62.86,7.03-6.72,8.32-9.68,17.91-10.66,28.21-.66,6.96-2.89,13.25-5.97,19.39-10,19.93-24.29,36.33-41.58,50.24-20.38,16.4-42.79,27.75-69.62,28.91-11.95.51-21.94,6.18-29.71,15.04-23.04,26.19-8.9,67.65,25.22,74.45h0c25.85,5.13,50.45-12.9,53.92-39.01.98-7.27,2.81-14.61,5.62-21.33,13-30.82,34.94-53.78,64.03-69.95,14.06-7.81,29.09-12.2,45.41-12.09,13.47.08,24.68-5.79,33.15-16.05,16.63-20.13,13.39-48.5-6.99-64.86h.04Z"/>
    <polygon points="448.42 72.58 508.66 72.58 508.66 33.72 349.09 33.72 349.09 72.58 409.33 72.58 409.33 296.84 349.09 296.84 349.09 335.74 508.66 335.74 508.66 296.84 448.42 296.84 448.42 72.58 448.42 72.58 448.42 72.58"/>
    <path d="M146.72,33.72l-56.03,65.05v236.96h39.04v-121.86h122.68v121.86h39.04V98.19l-61.81-64.47h-82.93ZM252.41,175.02h-122.68v-61.82l34.94-40.57h48.26l39.47,41.15v61.24h0Z"/>
    <path d="M1039.35,98.19l-61.81-64.47h-138.96v302.01h39.04v-121.86h92.81l29.83,44.8v77.02h39.04v-88.75l-32.88-49.39,32.88-31.13v-68.28l.04.04h0ZM1000.31,149.76l-26.67,25.22h-95.97v-102.39h83.2l39.47,41.15v36.02h-.04Z"/>
  </g>
  <text class="st0" transform="translate(9.57 484.46)"><tspan x="0" y="0">Agentic AI Engineering</tspan></text>
</svg>